#!OML:ASF F:\VICON\USERDATA\INSTALL\rory3\rory3.ASF
:FULLY-SPECIFIED
:DEGREES
2650
root -0.660458 18.546 -2.10246 -361.655 236.818 0.300948
lowerback 5.40088 -2.56699 -5.83725
upperback 2.88288 -3.95914 -4.46968
thorax 0.0220874 -2.11181 -1.13745
lowerneck -3.00721 -5.01549 -8.66763
upperneck 27.034 -8.05117 1.37954
head 9.41239 -5.05634 1.12338
rclavicle -9.20373e-014 -1.59028e-014
rhumerus 369.222 -11.5289 -378.944
rradius 105.712
rwrist -51.0683
rhand 5.0409 -0.279221
rfingers 7.12502
rthumb 30.409 -27.7917
lclavicle -9.20373e-014 -1.59028e-014
lhumerus -10.1701 -38.3751 89.4833
lradius 88.8873
lwrist 74.8121
lhand -23.9996 27.7945
lfingers 7.12502
lthumb 2.47777 -302.24
rfemur -11.1466 20.3453 15.6526
rtibia 29.9988
rfoot -15.98 -8.5632
rtoes -9.02029
lfemur 0.44076 -10.2461 -7.24388
ltibia 22.8967
lfoot -11.8491 16.1644
ltoes -4.18152
2651
root -0.614125 18.5629 -2.14357 -361.508 237.108 0.175218
lowerback 5.51658 -2.50432 -5.89881
upperback 2.98871 -3.89052 -4.52108
thorax 0.0660828 -2.08345 -1.1574
lowerneck -3.20004 -4.60363 -8.70187
upperneck 27.1649 -7.42114 1.30501
head 9.45678 -4.77456 1.15868
rclavicle -1.2921e-014 -2.8625e-014
rhumerus 368.406 -10.469 -378.753
rradius 104.07
rwrist -50.0632
rhand 5.94141 0.457913
rfingers 7.12502
rthumb 31.2675 -26.8922
lclavicle -1.2921e-014 -2.8625e-014
lhumerus -10.4948 -38.1769 89.6911
lradius 88.8519
lwrist 75.0626
lhand -32.0623 19.9743
lfingers 7.12502
lthumb -5.30889 -310.112
rfemur -11.083 20.1082 15.7656
rtibia 29.7629
rfoot -15.7684 -8.66763
rtoes -8.97185
lfemur 0.273066 -10.3804 -7.26209
ltibia 22.7737
lfoot -11.6748 17.1822
ltoes -3.97393
2652
root -0.568128 18.5785 -2.18367 -361.14 237.431 -0.0825448
lowerback 5.54714 -2.43401 -6.07178
upperback 3.04101 -3.81046 -4.55694
thorax 0.110444 -2.04907 -1.10347
lowerneck -3.30464 -4.26894 -8.5867
upperneck 27.2651 -6.89624 1.09928
head 9.46953 -4.54126 1.11708
rclavicle 9.66093e-014 -4.77083e-015
rhumerus 367.751 -9.40706 -378.963
rradius 101.994
rwrist -48.7674
rhand 6.58263 1.69253
rfingers 7.12502
rthumb 31.8783 -25.5377
lclavicle 9.66093e-014 -4.77083e-015
lhumerus -10.823 -38.0101 89.964
lradius 88.7546
lwrist 75.167
lhand -43.8749 -9.01415
lfingers 7.12502
lthumb -16.7007 -339.713
rfemur -11.1831 19.7461 15.7394
rtibia 29.5874
rfoot -15.5526 -8.72806
rtoes -9.13829
lfemur -0.01709 -10.5531 -7.3409
ltibia 22.646
lfoot -11.7717 18.0796
ltoes -3.0566
2653
root -0.522119 18.5916 -2.22409 -361.051 237.688 -0.0741856
lowerback 5.62067 -2.29321 -6.08948
upperback 3.0983 -3.63236 -4.5939
thorax 0.123045 -1.96331 -1.13847
lowerneck -3.55124 -3.91726 -8.51636
upperneck 27.5264 -6.37755 1.05298
head 9.57554 -4.30388 1.13045
rclavicle 1.59028e-014 1.00187e-013
rhumerus 366.953 -8.65236 -379.16
rradius 99.8607
rwrist -47.7261
rhand 6.97595 2.55485
rfingers 7.12502
rthumb 32.2528 -24.6001
lclavicle 1.59028e-014 1.00187e-013
lhumerus -11.1424 -38.0431 90.1939
lradius 88.6316
lwrist 75.1635
lhand -46.8133 -49.1845
lfingers 7.12502
lthumb -19.5277 -380.145
rfemur -11.2198 19.692 15.9241
rtibia 29.4419
rfoot -15.3931 -9.01235
rtoes -8.8608
lfemur -0.23963 -10.4508 -7.22101
ltibia 22.5522
lfoot -11.8791 18.5869
ltoes -1.49865
2654
root -0.475715 18.6027 -2.26131 -361.05 237.899 -0.0664359
lowerback 5.77606 -2.08601 -6.05172
upperback 3.20393 -3.37298 -4.67194
thorax 0.132439 -1.83874 -1.24839
lowerneck -3.9079 -3.54876 -8.30899
upperneck 27.793 -5.8185 0.958874
head 9.69663 -4.03531 1.10695
rclavicle -9.70069e-014 1.90833e-014
rhumerus 366.016 -8.23414 -379.21
rradius 97.6328
rwrist -46.7564
rhand 7.03978 2.91211
rfingers 7.12502
rthumb 32.3136 -24.2304
lclavicle -9.70069e-014 1.90833e-014
lhumerus -11.4263 -38.2308 90.3405
lradius 88.5772
lwrist 75.0494
lhand -44.9377 -63.753
lfingers 7.12502
lthumb -17.7237 -394.541
rfemur -11.1792 19.5729 16.1331
rtibia 29.3167
rfoot -15.3583 -9.14109
rtoes -7.91427
lfemur -0.387097 -10.1195 -7.09986
ltibia 22.4932
lfoot -11.7371 18.9428
ltoes -0.227916
